if (_typeface_js && _typeface_js.loadFace) _typeface_js.loadFace({"glyphs":{"0":{"ha":1172,"x_min":0,"x_max":1042,"o":"m 608 347 l 608 1042 l 434 1042 l 434 347 l 608 347 m 0 0 l 0 1389 l 1042 1389 l 1042 0 l 0 0 z "},"1":{"ha":738,"x_min":0,"x_max":608,"o":"m 174 0 l 174 868 l 0 868 l 0 1215 l 87 1215 l 87 1302 l 174 1302 l 174 1389 l 608 1389 l 608 0 l 174 0 z "},"2":{"ha":1215,"x_min":0,"x_max":1085,"o":"m 0 0 l 0 738 l 130 738 l 130 868 l 651 868 l 651 1042 l 0 1042 l 0 1389 l 955 1389 l 955 1259 l 1085 1259 l 1085 651 l 955 651 l 955 521 l 434 521 l 434 347 l 1085 347 l 1085 0 l 0 0 z "},"3":{"ha":1172,"x_min":0,"x_max":1042,"o":"m 0 0 l 0 347 l 608 347 l 608 521 l 0 521 l 0 868 l 608 868 l 608 1042 l 0 1042 l 0 1389 l 911 1389 l 911 1259 l 1042 1259 l 1042 738 l 955 738 l 955 651 l 1042 651 l 1042 130 l 911 130 l 911 0 l 0 0 z "},"4":{"ha":1172,"x_min":0,"x_max":1042,"o":"m 608 0 l 608 521 l 0 521 l 0 1389 l 434 1389 l 434 868 l 608 868 l 608 1389 l 1042 1389 l 1042 0 l 608 0 z "},"5":{"ha":1215,"x_min":0,"x_max":1085,"o":"m 0 0 l 0 347 l 651 347 l 651 521 l 130 521 l 130 651 l 0 651 l 0 1389 l 1085 1389 l 1085 1042 l 434 1042 l 434 868 l 955 868 l 955 738 l 1085 738 l 1085 130 l 955 130 l 955 0 l 0 0 z "},"6":{"ha":1172,"x_min":0,"x_max":1042,"o":"m 608 347 l 608 521 l 434 521 l 434 347 l 608 347 m 0 0 l 0 1389 l 1042 1389 l 1042 1042 l 434 1042 l 434 868 l 1042 868 l 1042 0 l 0 0 z "},"7":{"ha":1172,"x_min":0,"x_max":1042,"o":"m 608 0 l 608 1042 l 0 1042 l 0 1389 l 1042 1389 l 1042 0 l 608 0 z "},"8":{"ha":1172,"x_min":0,"x_max":1042,"o":"m 608 347 l 608 521 l 434 521 l 434 347 l 608 347 m 608 868 l 608 1042 l 434 1042 l 434 868 l 608 868 m 0 0 l 0 651 l 87 651 l 87 738 l 0 738 l 0 1389 l 1042 1389 l 1042 738 l 955 738 l 955 651 l 1042 651 l 1042 0 l 0 0 z "},"9":{"ha":1172,"x_min":0,"x_max":1042,"o":"m 608 868 l 608 1042 l 434 1042 l 434 868 l 608 868 m 0 0 l 0 347 l 608 347 l 608 521 l 0 521 l 0 1389 l 1042 1389 l 1042 0 l 0 0 z "}," ":{"ha":521,"x_min":0,"x_max":0,"o":""},"!":{"ha":477,"x_min":0,"x_max":347,"o":"m 0 0 l 0 304 l 347 304 l 347 0 l 0 0 m 0 391 l 0 1389 l 347 1389 l 347 391 l 0 391 z "},"\"":{"ha":347,"x_min":0,"x_max":217,"o":"m 0 1215 l 0 1389 l 87 1389 l 87 1215 l 0 1215 m 130 1215 l 130 1389 l 217 1389 l 217 1215 l 130 1215 z "},"#":{"ha":911,"x_min":0,"x_max":781,"o":"m 477 608 l 477 781 l 304 781 l 304 608 l 477 608 m 174 304 l 174 477 l 0 477 l 0 608 l 174 608 l 174 781 l 0 781 l 0 911 l 174 911 l 174 1085 l 304 1085 l 304 911 l 477 911 l 477 1085 l 608 1085 l 608 911 l 781 911 l 781 781 l 608 781 l 608 608 l 781 608 l 781 477 l 608 477 l 608 304 l 477 304 l 477 477 l 304 477 l 304 304 l 174 304 z "},"'":{"ha":217,"x_min":0,"x_max":87,"o":"m 0 1215 l 0 1389 l 87 1389 l 87 1215 l 0 1215 z "},"(":{"ha":391,"x_min":0,"x_max":260,"o":"m 0 130 l 0 1259 l 260 1259 l 260 1128 l 130 1128 l 130 260 l 260 260 l 260 130 l 0 130 z "},")":{"ha":391,"x_min":0,"x_max":260,"o":"m 0 130 l 0 260 l 130 260 l 130 1128 l 0 1128 l 0 1259 l 260 1259 l 260 130 l 0 130 z "},"*":{"ha":347,"x_min":0,"x_max":217,"o":"m 0 1128 l 0 1215 l 43 1215 l 43 1259 l 0 1259 l 0 1345 l 87 1345 l 87 1302 l 130 1302 l 130 1345 l 217 1345 l 217 1259 l 174 1259 l 174 1215 l 217 1215 l 217 1128 l 130 1128 l 130 1172 l 87 1172 l 87 1128 l 0 1128 z "},"+":{"ha":521,"x_min":0,"x_max":391,"o":"m 130 477 l 130 608 l 0 608 l 0 738 l 130 738 l 130 868 l 260 868 l 260 738 l 391 738 l 391 608 l 260 608 l 260 477 l 130 477 z "},",":{"ha":304,"x_min":0,"x_max":174,"o":"m 87 0 l 87 87 l 0 87 l 0 174 l 174 174 l 174 0 l 87 0 z "},"-":{"ha":521,"x_min":0,"x_max":391,"o":"m 0 608 l 0 738 l 391 738 l 391 608 l 0 608 z "},".":{"ha":304,"x_min":0,"x_max":174,"o":"m 0 0 l 0 174 l 174 174 l 174 0 l 0 0 z "},"/":{"ha":608,"x_min":0,"x_max":477,"o":"m 0 87 l 0 217 l 43 217 l 43 347 l 87 347 l 87 477 l 130 477 l 130 608 l 174 608 l 174 738 l 217 738 l 217 868 l 260 868 l 260 998 l 304 998 l 304 1128 l 347 1128 l 347 1259 l 477 1259 l 477 1128 l 434 1128 l 434 998 l 391 998 l 391 868 l 347 868 l 347 738 l 304 738 l 304 608 l 260 608 l 260 477 l 217 477 l 217 347 l 174 347 l 174 217 l 130 217 l 130 87 l 0 87 z "},":":{"ha":217,"x_min":0,"x_max":87,"o":"m 0 217 l 0 347 l 87 347 l 87 217 l 0 217 m 0 434 l 0 564 l 87 564 l 87 434 l 0 434 z "},";":{"ha":217,"x_min":0,"x_max":87,"o":"m 43 217 l 43 260 l 0 260 l 0 347 l 87 347 l 87 217 l 43 217 m 0 434 l 0 564 l 87 564 l 87 434 l 0 434 z "},"<":{"ha":998,"x_min":0,"x_max":868,"o":"m 694 -868 l 694 -825 l 651 -825 l 651 -781 l 608 -781 l 608 -738 l 564 -738 l 564 -694 l 521 -694 l 521 -651 l 477 -651 l 477 -608 l 434 -608 l 434 -564 l 391 -564 l 391 -521 l 347 -521 l 347 -477 l 304 -477 l 304 -434 l 260 -434 l 260 -391 l 217 -391 l 217 -347 l 174 -347 l 174 -304 l 130 -304 l 130 -260 l 87 -260 l 87 -217 l 43 -217 l 43 -174 l 0 -174 l 0 1389 l 868 1389 l 868 -868 l 694 -868 z "},"=":{"ha":521,"x_min":0,"x_max":391,"o":"m 0 521 l 0 651 l 391 651 l 391 521 l 0 521 m 0 694 l 0 825 l 391 825 l 391 694 l 0 694 z "},">":{"ha":998,"x_min":0,"x_max":868,"o":"m 0 -868 l 0 1389 l 868 1389 l 868 -174 l 825 -174 l 825 -217 l 781 -217 l 781 -260 l 738 -260 l 738 -304 l 694 -304 l 694 -347 l 651 -347 l 651 -391 l 608 -391 l 608 -434 l 564 -434 l 564 -477 l 521 -477 l 521 -521 l 477 -521 l 477 -564 l 434 -564 l 434 -608 l 391 -608 l 391 -651 l 347 -651 l 347 -694 l 304 -694 l 304 -738 l 260 -738 l 260 -781 l 217 -781 l 217 -825 l 174 -825 l 174 -868 l 0 -868 z "},"?":{"ha":1128,"x_min":0,"x_max":998,"o":"m 391 0 l 391 304 l 738 304 l 738 0 l 391 0 m 391 391 l 391 825 l 608 825 l 608 1085 l 347 1085 l 347 955 l 0 955 l 0 1389 l 998 1389 l 998 651 l 868 651 l 868 521 l 738 521 l 738 391 l 391 391 z "},"@":{"ha":955,"x_min":0,"x_max":825,"o":"m 477 608 l 477 738 l 347 738 l 347 608 l 477 608 m 0 260 l 0 1085 l 825 1085 l 825 477 l 217 477 l 217 868 l 608 868 l 608 608 l 694 608 l 694 955 l 130 955 l 130 391 l 694 391 l 694 260 l 0 260 z "},"A":{"ha":1172,"x_min":0,"x_max":1042,"o":"m 694 651 l 694 911 l 608 911 l 608 998 l 781 998 l 781 1172 l 608 1172 l 608 998 l 434 998 l 434 1172 l 260 1172 l 260 998 l 434 998 l 434 911 l 347 911 l 347 651 l 434 651 l 434 738 l 608 738 l 608 651 l 694 651 m 0 0 l 0 1389 l 1042 1389 l 1042 0 l 608 0 l 608 391 l 434 391 l 434 0 l 0 0 z "},"B":{"ha":1172,"x_min":0,"x_max":1042,"o":"m 608 347 l 608 521 l 434 521 l 434 347 l 608 347 m 608 868 l 608 1042 l 434 1042 l 434 868 l 608 868 m 0 0 l 0 1389 l 1042 1389 l 1042 738 l 911 738 l 911 651 l 1042 651 l 1042 0 l 0 0 z "},"C":{"ha":1259,"x_min":0,"x_max":1128,"o":"m 0 0 l 0 1389 l 1128 1389 l 1128 1042 l 434 1042 l 434 347 l 1128 347 l 1128 0 l 0 0 z "},"D":{"ha":1215,"x_min":0,"x_max":1085,"o":"m 651 347 l 651 1042 l 434 1042 l 434 347 l 651 347 m 0 0 l 0 1389 l 955 1389 l 955 1259 l 1085 1259 l 1085 130 l 955 130 l 955 0 l 0 0 z "},"E":{"ha":1172,"x_min":0,"x_max":1042,"o":"m 0 0 l 0 1389 l 1042 1389 l 1042 1042 l 434 1042 l 434 868 l 1042 868 l 1042 521 l 434 521 l 434 347 l 1042 347 l 1042 0 l 0 0 z "},"F":{"ha":1172,"x_min":0,"x_max":1042,"o":"m 0 0 l 0 1389 l 1042 1389 l 1042 1042 l 434 1042 l 434 868 l 1042 868 l 1042 521 l 434 521 l 434 0 l 0 0 z "},"G":{"ha":1302,"x_min":0,"x_max":1172,"o":"m 130 0 l 130 130 l 0 130 l 0 1259 l 130 1259 l 130 1389 l 1172 1389 l 1172 1042 l 434 1042 l 434 347 l 825 347 l 825 521 l 608 521 l 608 868 l 1172 868 l 1172 0 l 130 0 z "},"H":{"ha":1259,"x_min":0,"x_max":1128,"o":"m 0 0 l 0 1389 l 434 1389 l 434 868 l 694 868 l 694 1389 l 1128 1389 l 1128 0 l 694 0 l 694 521 l 434 521 l 434 0 l 0 0 z "},"I":{"ha":564,"x_min":0,"x_max":434,"o":"m 0 0 l 0 1389 l 434 1389 l 434 0 l 0 0 z "},"J":{"ha":1172,"x_min":0,"x_max":1042,"o":"m 0 0 l 0 347 l 608 347 l 608 1042 l 304 1042 l 304 1389 l 1042 1389 l 1042 0 l 0 0 z "},"K":{"ha":1215,"x_min":0,"x_max":1085,"o":"m 0 0 l 0 1389 l 434 1389 l 434 1085 l 521 1085 l 521 1215 l 651 1215 l 651 1389 l 1085 1389 l 1085 911 l 911 911 l 911 781 l 781 781 l 781 608 l 911 608 l 911 477 l 1085 477 l 1085 0 l 651 0 l 651 174 l 521 174 l 521 304 l 434 304 l 434 0 l 0 0 z "},"L":{"ha":1172,"x_min":0,"x_max":1042,"o":"m 0 0 l 0 1389 l 434 1389 l 434 347 l 1042 347 l 1042 0 l 0 0 z "},"M":{"ha":1519,"x_min":0,"x_max":1389,"o":"m 0 0 l 0 1389 l 434 1389 l 434 1215 l 608 1215 l 608 1042 l 781 1042 l 781 1215 l 955 1215 l 955 1389 l 1389 1389 l 1389 0 l 955 0 l 955 608 l 868 608 l 868 434 l 521 434 l 521 608 l 434 608 l 434 0 l 0 0 z "},"N":{"ha":1302,"x_min":0,"x_max":1172,"o":"m 0 0 l 0 1389 l 434 1389 l 434 1172 l 608 1172 l 608 955 l 738 955 l 738 1389 l 1172 1389 l 1172 0 l 738 0 l 738 217 l 564 217 l 564 434 l 434 434 l 434 0 l 0 0 z "},"O":{"ha":1345,"x_min":0,"x_max":1215,"o":"m 781 347 l 781 1042 l 434 1042 l 434 347 l 781 347 m 0 0 l 0 1389 l 1215 1389 l 1215 0 l 0 0 z "},"P":{"ha":1172,"x_min":0,"x_max":1042,"o":"m 608 868 l 608 1042 l 434 1042 l 434 868 l 608 868 m 0 0 l 0 1389 l 1042 1389 l 1042 521 l 434 521 l 434 0 l 0 0 z "},"Q":{"ha":1432,"x_min":0,"x_max":1302,"o":"m 781 347 l 781 1042 l 434 1042 l 434 347 l 781 347 m 868 -87 l 868 0 l 0 0 l 0 1389 l 1215 1389 l 1215 347 l 1302 347 l 1302 -87 l 868 -87 z "},"R":{"ha":1172,"x_min":0,"x_max":1042,"o":"m 608 868 l 608 1042 l 434 1042 l 434 868 l 608 868 m 0 0 l 0 1389 l 1042 1389 l 1042 608 l 911 608 l 911 521 l 1042 521 l 1042 0 l 608 0 l 608 521 l 434 521 l 434 0 l 0 0 z "},"S":{"ha":1215,"x_min":0,"x_max":1085,"o":"m 0 0 l 0 347 l 651 347 l 651 521 l 0 521 l 0 1389 l 1085 1389 l 1085 1042 l 434 1042 l 434 868 l 1085 868 l 1085 0 l 0 0 z "},"T":{"ha":1172,"x_min":0,"x_max":1042,"o":"m 304 0 l 304 1042 l 0 1042 l 0 1389 l 1042 1389 l 1042 1042 l 738 1042 l 738 0 l 304 0 z "},"U":{"ha":1259,"x_min":0,"x_max":1128,"o":"m 0 0 l 0 1389 l 434 1389 l 434 347 l 694 347 l 694 1389 l 1128 1389 l 1128 0 l 0 0 z "},"V":{"ha":1215,"x_min":0,"x_max":1085,"o":"m 260 0 l 260 130 l 130 130 l 130 304 l 0 304 l 0 1389 l 434 1389 l 434 347 l 651 347 l 651 1389 l 1085 1389 l 1085 304 l 955 304 l 955 130 l 825 130 l 825 0 l 260 0 z "},"W":{"ha":1519,"x_min":0,"x_max":1389,"o":"m 0 0 l 0 1389 l 434 1389 l 434 781 l 521 781 l 521 955 l 868 955 l 868 781 l 955 781 l 955 1389 l 1389 1389 l 1389 0 l 955 0 l 955 174 l 781 174 l 781 347 l 608 347 l 608 174 l 434 174 l 434 0 l 0 0 z "},"X":{"ha":1432,"x_min":0,"x_max":1302,"o":"m 0 0 l 0 477 l 174 477 l 174 608 l 304 608 l 304 781 l 174 781 l 174 911 l 0 911 l 0 1389 l 434 1389 l 434 1215 l 564 1215 l 564 1085 l 738 1085 l 738 1215 l 868 1215 l 868 1389 l 1302 1389 l 1302 911 l 1128 911 l 1128 781 l 998 781 l 998 608 l 1128 608 l 1128 477 l 1302 477 l 1302 0 l 868 0 l 868 174 l 738 174 l 738 304 l 564 304 l 564 174 l 434 174 l 434 0 l 0 0 z "},"Y":{"ha":1432,"x_min":0,"x_max":1302,"o":"m 434 0 l 434 521 l 304 521 l 304 651 l 174 651 l 174 781 l 0 781 l 0 1389 l 434 1389 l 434 1042 l 564 1042 l 564 911 l 738 911 l 738 1042 l 868 1042 l 868 1389 l 1302 1389 l 1302 781 l 1128 781 l 1128 651 l 998 651 l 998 521 l 868 521 l 868 0 l 434 0 z "},"Z":{"ha":1259,"x_min":0,"x_max":1128,"o":"m 0 0 l 0 564 l 174 564 l 174 738 l 434 738 l 434 911 l 694 911 l 694 1042 l 0 1042 l 0 1389 l 1128 1389 l 1128 825 l 955 825 l 955 651 l 694 651 l 694 477 l 434 477 l 434 347 l 1128 347 l 1128 0 l 0 0 z "},"[":{"ha":391,"x_min":0,"x_max":260,"o":"m 0 130 l 0 1259 l 260 1259 l 260 1128 l 130 1128 l 130 260 l 260 260 l 260 130 l 0 130 z "},"\\":{"ha":608,"x_min":0,"x_max":477,"o":"m 347 87 l 347 217 l 304 217 l 304 347 l 260 347 l 260 477 l 217 477 l 217 608 l 174 608 l 174 738 l 130 738 l 130 868 l 87 868 l 87 998 l 43 998 l 43 1128 l 0 1128 l 0 1259 l 130 1259 l 130 1128 l 174 1128 l 174 998 l 217 998 l 217 868 l 260 868 l 260 738 l 304 738 l 304 608 l 347 608 l 347 477 l 391 477 l 391 347 l 434 347 l 434 217 l 477 217 l 477 87 l 347 87 z "},"]":{"ha":391,"x_min":0,"x_max":260,"o":"m 0 130 l 0 260 l 130 260 l 130 1128 l 0 1128 l 0 1259 l 260 1259 l 260 130 l 0 130 z "},"^":{"ha":477,"x_min":0,"x_max":347,"o":"m 0 -868 l 0 1389 l 347 1389 l 347 -868 l 0 -868 z "},"_":{"ha":738,"x_min":0,"x_max":608,"o":"m 0 0 l 0 174 l 608 174 l 608 0 l 0 0 z "},"`":{"ha":304,"x_min":0,"x_max":174,"o":"m 87 1215 l 87 1302 l 0 1302 l 0 1389 l 174 1389 l 174 1215 l 87 1215 z "},"a":{"ha":1172,"x_min":0,"x_max":1042,"o":"m 608 694 l 608 1085 l 434 1085 l 434 694 l 608 694 m 0 0 l 0 1389 l 1042 1389 l 1042 0 l 608 0 l 608 391 l 434 391 l 434 0 l 0 0 z "},"b":{"ha":1172,"x_min":0,"x_max":1042,"o":"m 608 347 l 608 521 l 434 521 l 434 347 l 608 347 m 608 868 l 608 1042 l 434 1042 l 434 868 l 608 868 m 0 0 l 0 1389 l 1042 1389 l 1042 738 l 911 738 l 911 651 l 1042 651 l 1042 0 l 0 0 z "},"c":{"ha":1259,"x_min":0,"x_max":1128,"o":"m 130 0 l 130 130 l 0 130 l 0 1259 l 130 1259 l 130 1389 l 1128 1389 l 1128 1042 l 434 1042 l 434 347 l 1128 347 l 1128 0 l 130 0 z "},"d":{"ha":1215,"x_min":0,"x_max":1085,"o":"m 651 347 l 651 1042 l 434 1042 l 434 347 l 651 347 m 0 0 l 0 1389 l 955 1389 l 955 1259 l 1085 1259 l 1085 130 l 955 130 l 955 0 l 0 0 z "},"e":{"ha":1172,"x_min":0,"x_max":1042,"o":"m 0 0 l 0 1389 l 1042 1389 l 1042 1042 l 434 1042 l 434 868 l 1042 868 l 1042 521 l 434 521 l 434 347 l 1042 347 l 1042 0 l 0 0 z "},"f":{"ha":1172,"x_min":0,"x_max":1042,"o":"m 0 0 l 0 1389 l 1042 1389 l 1042 1042 l 434 1042 l 434 868 l 1042 868 l 1042 521 l 434 521 l 434 0 l 0 0 z "},"g":{"ha":1302,"x_min":0,"x_max":1172,"o":"m 130 0 l 130 130 l 0 130 l 0 1259 l 130 1259 l 130 1389 l 1172 1389 l 1172 1042 l 434 1042 l 434 347 l 825 347 l 825 521 l 608 521 l 608 868 l 1172 868 l 1172 0 l 130 0 z "},"h":{"ha":1259,"x_min":0,"x_max":1128,"o":"m 0 0 l 0 1389 l 434 1389 l 434 868 l 694 868 l 694 1389 l 1128 1389 l 1128 0 l 694 0 l 694 521 l 434 521 l 434 0 l 0 0 z "},"i":{"ha":564,"x_min":0,"x_max":434,"o":"m 0 0 l 0 1389 l 434 1389 l 434 0 l 0 0 z "},"j":{"ha":1172,"x_min":0,"x_max":1042,"o":"m 0 0 l 0 347 l 608 347 l 608 1042 l 304 1042 l 304 1389 l 1042 1389 l 1042 0 l 0 0 z "},"k":{"ha":1215,"x_min":0,"x_max":1085,"o":"m 0 0 l 0 1389 l 434 1389 l 434 1085 l 521 1085 l 521 1215 l 651 1215 l 651 1389 l 1085 1389 l 1085 911 l 911 911 l 911 781 l 781 781 l 781 608 l 911 608 l 911 477 l 1085 477 l 1085 0 l 651 0 l 651 174 l 521 174 l 521 304 l 434 304 l 434 0 l 0 0 z "},"l":{"ha":1172,"x_min":0,"x_max":1042,"o":"m 0 0 l 0 1389 l 434 1389 l 434 347 l 1042 347 l 1042 0 l 0 0 z "},"m":{"ha":1519,"x_min":0,"x_max":1389,"o":"m 0 0 l 0 1389 l 434 1389 l 434 1215 l 608 1215 l 608 1042 l 781 1042 l 781 1215 l 955 1215 l 955 1389 l 1389 1389 l 1389 0 l 955 0 l 955 608 l 868 608 l 868 434 l 521 434 l 521 608 l 434 608 l 434 0 l 0 0 z "},"n":{"ha":1345,"x_min":0,"x_max":1215,"o":"m 0 0 l 0 1389 l 434 1389 l 434 1215 l 564 1215 l 564 1085 l 694 1085 l 694 911 l 781 911 l 781 1389 l 1215 1389 l 1215 0 l 781 0 l 781 174 l 651 174 l 651 304 l 521 304 l 521 477 l 434 477 l 434 0 l 0 0 z "},"o":{"ha":1345,"x_min":0,"x_max":1215,"o":"m 781 347 l 781 1042 l 434 1042 l 434 347 l 781 347 m 130 0 l 130 130 l 0 130 l 0 1259 l 130 1259 l 130 1389 l 1085 1389 l 1085 1259 l 1215 1259 l 1215 130 l 1085 130 l 1085 0 l 130 0 z "},"p":{"ha":1172,"x_min":0,"x_max":1042,"o":"m 608 868 l 608 1042 l 434 1042 l 434 868 l 608 868 m 0 0 l 0 1389 l 1042 1389 l 1042 521 l 434 521 l 434 0 l 0 0 z "},"q":{"ha":1432,"x_min":0,"x_max":1302,"o":"m 781 347 l 781 1042 l 434 1042 l 434 347 l 781 347 m 868 -87 l 868 0 l 130 0 l 130 130 l 0 130 l 0 1259 l 130 1259 l 130 1389 l 1085 1389 l 1085 1259 l 1215 1259 l 1215 347 l 1302 347 l 1302 -87 l 868 -87 z "},"r":{"ha":1172,"x_min":0,"x_max":1042,"o":"m 608 868 l 608 1042 l 434 1042 l 434 868 l 608 868 m 0 0 l 0 1389 l 1042 1389 l 1042 608 l 911 608 l 911 521 l 1042 521 l 1042 0 l 608 0 l 608 521 l 434 521 l 434 0 l 0 0 z "},"s":{"ha":1215,"x_min":0,"x_max":1085,"o":"m 0 0 l 0 347 l 651 347 l 651 521 l 0 521 l 0 1389 l 1085 1389 l 1085 1042 l 434 1042 l 434 868 l 1085 868 l 1085 0 l 0 0 z "},"t":{"ha":1172,"x_min":0,"x_max":1042,"o":"m 304 0 l 304 1042 l 0 1042 l 0 1389 l 1042 1389 l 1042 1042 l 738 1042 l 738 0 l 304 0 z "},"u":{"ha":1259,"x_min":0,"x_max":1128,"o":"m 0 0 l 0 1389 l 434 1389 l 434 347 l 694 347 l 694 1389 l 1128 1389 l 1128 0 l 0 0 z "},"v":{"ha":1215,"x_min":0,"x_max":1085,"o":"m 260 0 l 260 130 l 130 130 l 130 304 l 0 304 l 0 1389 l 434 1389 l 434 347 l 651 347 l 651 1389 l 1085 1389 l 1085 304 l 955 304 l 955 130 l 825 130 l 825 0 l 260 0 z "},"w":{"ha":1519,"x_min":0,"x_max":1389,"o":"m 0 0 l 0 1389 l 434 1389 l 434 781 l 521 781 l 521 955 l 868 955 l 868 781 l 955 781 l 955 1389 l 1389 1389 l 1389 0 l 955 0 l 955 174 l 781 174 l 781 347 l 608 347 l 608 174 l 434 174 l 434 0 l 0 0 z "},"x":{"ha":1432,"x_min":0,"x_max":1302,"o":"m 0 0 l 0 477 l 174 477 l 174 608 l 304 608 l 304 781 l 174 781 l 174 911 l 0 911 l 0 1389 l 434 1389 l 434 1215 l 564 1215 l 564 1085 l 738 1085 l 738 1215 l 868 1215 l 868 1389 l 1302 1389 l 1302 911 l 1128 911 l 1128 781 l 998 781 l 998 608 l 1128 608 l 1128 477 l 1302 477 l 1302 0 l 868 0 l 868 174 l 738 174 l 738 304 l 564 304 l 564 174 l 434 174 l 434 0 l 0 0 z "},"y":{"ha":1432,"x_min":0,"x_max":1302,"o":"m 434 0 l 434 521 l 304 521 l 304 651 l 174 651 l 174 781 l 0 781 l 0 1389 l 434 1389 l 434 1042 l 564 1042 l 564 911 l 738 911 l 738 1042 l 868 1042 l 868 1389 l 1302 1389 l 1302 781 l 1128 781 l 1128 651 l 998 651 l 998 521 l 868 521 l 868 0 l 434 0 z "},"z":{"ha":1259,"x_min":0,"x_max":1128,"o":"m 0 0 l 0 564 l 174 564 l 174 738 l 434 738 l 434 911 l 694 911 l 694 1042 l 0 1042 l 0 1389 l 1128 1389 l 1128 825 l 955 825 l 955 651 l 694 651 l 694 477 l 434 477 l 434 347 l 1128 347 l 1128 0 l 0 0 z "},"{":{"ha":477,"x_min":0,"x_max":347,"o":"m 87 130 l 87 564 l 0 564 l 0 868 l 87 868 l 87 1259 l 347 1259 l 347 1128 l 217 1128 l 217 781 l 130 781 l 130 651 l 217 651 l 217 260 l 347 260 l 347 130 l 87 130 z "},"|":{"ha":260,"x_min":0,"x_max":130,"o":"m 0 130 l 0 1259 l 130 1259 l 130 130 l 0 130 z "},"}":{"ha":477,"x_min":0,"x_max":347,"o":"m 0 130 l 0 260 l 130 260 l 130 651 l 217 651 l 217 781 l 130 781 l 130 1128 l 0 1128 l 0 1259 l 260 1259 l 260 868 l 347 868 l 347 564 l 260 564 l 260 130 l 0 130 z "},"~":{"ha":521,"x_min":0,"x_max":391,"o":"m 0 564 l 0 694 l 217 694 l 217 651 l 304 651 l 304 694 l 391 694 l 391 564 l 174 564 l 174 608 l 87 608 l 87 564 l 0 564 z "},"‘":{"ha":304,"x_min":0,"x_max":174,"o":"m 0 1215 l 0 1389 l 87 1389 l 87 1302 l 174 1302 l 174 1215 l 0 1215 z "},"’":{"ha":304,"x_min":0,"x_max":174,"o":"m 87 1215 l 87 1302 l 0 1302 l 0 1389 l 174 1389 l 174 1215 l 87 1215 z "},"“":{"ha":521,"x_min":0,"x_max":391,"o":"m 0 1215 l 0 1389 l 87 1389 l 87 1302 l 174 1302 l 174 1215 l 0 1215 m 217 1215 l 217 1389 l 304 1389 l 304 1302 l 391 1302 l 391 1215 l 217 1215 z "},"”":{"ha":521,"x_min":0,"x_max":391,"o":"m 87 1215 l 87 1302 l 0 1302 l 0 1389 l 174 1389 l 174 1215 l 87 1215 m 304 1215 l 304 1302 l 217 1302 l 217 1389 l 391 1389 l 391 1215 l 304 1215 z "}}}
